<?xml version="1.0" standalone="no"?>
<!DOCTYPE svg PUBLIC "-//W3C//DTD SVG 20010904//EN"
 "http://www.w3.org/TR/2001/REC-SVG-20010904/DTD/svg10.dtd">
<svg version="1.0" xmlns="http://www.w3.org/2000/svg"
 width="512.000000pt" height="512.000000pt" viewBox="0 0 512.000000 512.000000"
 preserveAspectRatio="xMidYMid meet">

<g transform="translate(0.000000,512.000000) scale(0.100000,-0.100000)"
fill="#000000" stroke="none">
<path fill="red" d="M2354 4804 c-60 -36 -269 -164 -464 -283 l-355 -216 -182 -5 c-181
-5 -183 -5 -209 -31 -36 -36 -36 -92 0 -127 23 -23 35 -26 116 -30 75 -4 90
-7 86 -19 -3 -8 -6 -748 -6 -1644 l0 -1629 -409 0 c-394 0 -409 -1 -434 -20
-50 -40 -39 -128 19 -150 16 -6 771 -10 2010 -10 l1986 0 29 29 c38 39 40 88
3 125 l-27 26 -428 0 -429 0 0 1623 c0 892 -3 1632 -6 1645 -6 21 -4 22 58 22
83 0 125 15 143 51 28 53 15 98 -35 124 -22 12 -66 15 -188 15 l-159 0 -468
285 c-389 236 -475 285 -505 285 -28 0 -64 -17 -146 -66z m455 -315 l304 -184
-307 -3 c-168 -1 -444 -1 -613 0 l-306 3 304 186 c167 102 306 185 309 184 3
-1 142 -85 309 -186z m643 -396 c17 -15 18 -56 18 -880 l0 -863 -975 0 -975 0
0 395 0 395 296 0 c183 0 303 4 315 10 50 27 60 108 17 146 -18 17 -46 19
-322 24 l-301 5 0 150 0 150 431 5 c403 5 433 6 452 24 45 40 31 125 -24 146
-15 6 -202 10 -445 10 l-419 0 0 121 c0 115 8 154 34 171 6 4 431 8 945 8 856
0 936 -1 953 -17z m18 -1965 c-1 -32 -13 -42 -485 -361 l-485 -327 -490 331
c-455 308 -490 334 -490 360 l0 29 975 0 975 0 0 -32z m-1444 -589 l474 -320
481 326 c264 179 482 325 485 325 2 0 4 -236 4 -525 l0 -525 -972 2 -973 3 -3
524 c-2 477 -1 523 14 517 9 -3 229 -150 490 -327z"/>
</g>
</svg>
