<?xml version="1.0" standalone="no"?>
<!DOCTYPE svg PUBLIC "-//W3C//DTD SVG 20010904//EN"
 "http://www.w3.org/TR/2001/REC-SVG-20010904/DTD/svg10.dtd">
<svg version="1.0" xmlns="http://www.w3.org/2000/svg"
 width="660.000000pt" height="884.000000pt" viewBox="0 0 660.000000 884.000000"
 preserveAspectRatio="xMidYMid meet">

<g transform="translate(0.000000,884.000000) scale(0.100000,-0.100000)"
fill="#000000" stroke="none">
<path d="M3230 7026 c-25 -12 -64 -30 -87 -39 -73 -29 -138 -61 -141 -69 -2
-4 -9 -8 -16 -8 -12 0 -59 -19 -98 -41 -10 -5 -25 -9 -33 -9 -8 0 -15 -4 -15
-10 0 -5 -9 -10 -19 -10 -11 0 -22 -4 -25 -9 -4 -5 -41 -24 -84 -41 -42 -18
-104 -46 -136 -61 -33 -16 -65 -29 -73 -29 -7 0 -13 -4 -13 -10 0 -5 -6 -10
-14 -10 -7 0 -34 -11 -60 -25 -26 -14 -55 -25 -66 -25 -10 0 -20 -3 -22 -7 -1
-5 -27 -19 -56 -33 -65 -29 -88 -48 -101 -82 -12 -32 -26 -326 -17 -362 l6
-26 1139 0 c902 0 1140 3 1144 13 5 15 -1 296 -8 353 -3 23 -14 48 -23 56 -25
22 -113 68 -128 68 -8 0 -14 5 -14 10 0 6 -9 10 -19 10 -11 0 -41 11 -67 25
-26 14 -53 25 -60 25 -8 0 -14 5 -14 10 0 6 -7 10 -15 10 -8 0 -23 4 -33 10
-9 5 -57 28 -107 50 -49 22 -107 49 -128 60 -22 11 -45 20 -53 20 -8 0 -14 5
-14 10 0 6 -6 10 -13 10 -14 0 -48 14 -120 51 -22 10 -45 19 -53 19 -8 0 -14
4 -14 8 0 4 -17 14 -37 21 -21 8 -75 31 -121 52 -96 45 -111 46 -172 15z"/>
<path d="M2156 5944 c-3 -9 -6 -206 -6 -438 0 -315 3 -425 12 -434 9 -9 277
-12 1144 -12 1023 0 1132 2 1138 16 3 9 6 206 6 438 0 315 -3 425 -12 434 -9
9 -277 12 -1144 12 -1023 0 -1132 -2 -1138 -16z"/>
<path d="M2156 4878 c-3 -13 -4 -214 -3 -448 l2 -425 1139 -3 c905 -2 1141 0
1148 10 13 22 10 862 -4 876 -9 9 -277 12 -1145 12 l-1133 0 -4 -22z"/>
<path d="M2172 3834 c-12 -9 -15 -136 -18 -905 -2 -492 -3 -900 -4 -906 0 -10
-57 -13 -252 -13 -142 0 -260 -4 -268 -10 -12 -7 -15 -30 -15 -100 0 -70 3
-93 15 -100 20 -13 3320 -13 3340 0 11 7 16 32 18 93 6 124 22 117 -283 117
-236 0 -253 1 -257 18 -3 10 -4 417 -3 905 3 719 1 888 -10 897 -18 15 -2242
19 -2263 4z m248 -314 c14 -11 30 -20 37 -20 6 0 13 -4 15 -8 2 -5 37 -28 78
-52 41 -24 77 -47 78 -52 2 -4 10 -8 18 -8 8 0 14 -4 14 -10 0 -5 5 -10 10
-10 9 0 87 -47 100 -60 3 -3 19 -12 35 -20 17 -8 32 -18 35 -21 3 -3 28 -18
55 -33 28 -15 56 -35 63 -44 8 -11 12 -64 12 -180 0 -145 2 -166 18 -178 13
-10 82 -13 309 -14 263 0 295 2 313 17 18 16 20 30 20 170 0 143 9 203 32 203
4 0 39 20 78 45 39 25 74 45 79 45 5 0 11 3 13 8 4 10 86 62 98 62 5 0 10 5
10 10 0 6 7 10 15 10 8 0 15 3 15 8 0 4 17 16 38 27 52 27 116 69 120 78 2 4
10 7 18 7 8 0 14 3 14 8 0 4 14 13 30 21 64 28 60 75 60 -743 0 -409 -3 -751
-6 -760 -6 -14 -98 -16 -944 -16 -579 0 -941 4 -945 9 -7 12 -7 1500 1 1512 9
15 37 10 64 -11z"/>
</g>
</svg>
